# Blender 5.1.1
# www.blender.org
mtllib SunMesh.mtl
o SunMesh
v 0.906311 -0.523259 0.000000
v 0.523259 -0.906311 0.000000
v 0.000000 -1.046518 0.000000
v -0.523259 -0.906311 0.000000
v -0.906311 -0.523259 0.000000
v -1.046518 0.000000 0.000000
v -0.906311 0.523259 -0.000000
v -0.523259 0.906311 -0.000000
v 0.000000 1.046518 -0.000000
v 0.523259 0.906311 -0.000000
v 0.906311 0.523259 -0.000000
v 1.046518 0.000000 0.000000
v 1.226335 -0.708025 -0.213350
v 0.708025 -1.226335 -0.213350
v 0.000000 -1.416050 -0.213350
v -0.708025 -1.226335 -0.213350
v -1.226335 -0.708025 -0.213350
v -1.416050 -0.000000 -0.213350
v -1.226335 0.708025 -0.213350
v -0.708025 1.226335 -0.213350
v 0.000000 1.416050 -0.213350
v 0.708025 1.226335 -0.213350
v 1.226335 0.708025 -0.213350
v 1.416050 -0.000000 -0.213350
v 1.226335 -0.708025 0.213350
v 0.708025 -1.226335 0.213350
v 0.000000 -1.416050 0.213350
v -0.708025 -1.226335 0.213350
v -1.226335 -0.708025 0.213350
v -1.416050 0.000000 0.213350
v -1.226335 0.708025 0.213350
v -0.708025 1.226335 0.213350
v 0.000000 1.416050 0.213350
v 0.708025 1.226335 0.213350
v 1.226335 0.708025 0.213350
v 1.416050 0.000000 0.213350
v 1.196516 -2.538291 -0.170752
v 0.232933 -2.796485 -0.170752
v 1.196516 -2.538291 0.170752
v 0.232933 -2.796485 0.170752
v -1.630235 -2.275090 -0.156098
v -2.275090 -1.630234 -0.156098
v -1.630235 -2.275090 0.156098
v -2.275090 -1.630234 0.156098
v -2.792245 0.248755 -0.165145
v -2.542530 1.180695 -0.165145
v -2.792243 0.248755 0.165145
v -2.542530 1.180696 0.165145
v -1.143518 2.552493 -0.151969
v -0.285931 2.782284 -0.151969
v -1.143519 2.552492 0.151969
v -0.285931 2.782284 0.151969
v 1.625136 2.280191 -0.158567
v 2.280191 1.625136 -0.158567
v 1.625136 2.280191 0.158567
v 2.280191 1.625136 0.158567
v 2.794640 -0.239805 -0.168316
v 2.540133 -1.189645 -0.168316
v 2.794640 -0.239805 0.168316
v 2.540133 -1.189645 0.168316
vn -0.3628 0.3628 -0.8584
vn -0.1328 0.4956 -0.8584
vn 0.1328 0.4956 -0.8584
vn 0.3628 0.3628 -0.8584
vn 0.4956 0.1328 -0.8584
vn 0.4956 -0.1328 -0.8584
vn 0.3628 -0.3628 -0.8584
vn 0.1328 -0.4956 -0.8584
vn -0.1328 -0.4956 -0.8584
vn -0.3628 -0.3628 -0.8584
vn -0.4956 -0.1328 -0.8584
vn -0.4956 0.1328 -0.8584
vn 0.7071 -0.7071 -0.0000
vn 0.2588 -0.9659 -0.0000
vn -0.2588 -0.9659 -0.0000
vn -0.7071 -0.7071 -0.0000
vn -0.9659 -0.2588 -0.0000
vn -0.9659 0.2588 -0.0000
vn -0.7071 0.7071 -0.0000
vn -0.2588 0.9659 -0.0000
vn 0.2588 0.9659 -0.0000
vn 0.7071 0.7071 -0.0000
vn 0.9659 0.2588 -0.0000
vn 0.9659 -0.2588 -0.0000
vn -0.3628 0.3628 0.8584
vn -0.1328 0.4956 0.8584
vn 0.1328 0.4956 0.8584
vn 0.3628 0.3628 0.8584
vn 0.4956 0.1328 0.8584
vn 0.4956 -0.1328 0.8584
vn 0.3628 -0.3628 0.8584
vn 0.1328 -0.4956 0.8584
vn -0.1328 -0.4956 0.8584
vn -0.3628 -0.3628 0.8584
vn -0.4956 -0.1328 0.8584
vn -0.4956 0.1328 0.8584
vn 0.0079 -0.0295 -0.9995
vn 0.9371 0.3489 -0.0000
vn 0.0079 -0.0295 0.9995
vn -0.9861 -0.1664 -0.0000
vn -0.0290 -0.0290 -0.9992
vn 0.7510 -0.6603 -0.0000
vn -0.0290 -0.0290 0.9992
vn -0.6603 0.7510 -0.0000
vn -0.0334 0.0089 -0.9994
vn -0.1779 -0.9841 -0.0000
vn -0.0334 0.0089 0.9994
vn 0.3380 0.9412 -0.0000
vn -0.0114 0.0425 -0.9990
vn -0.9501 -0.3120 -0.0000
vn -0.0114 0.0425 0.9990
vn 0.9788 0.2048 -0.0000
vn 0.0278 0.0278 -0.9992
vn -0.7544 0.6565 -0.0000
vn 0.0278 0.0278 0.9992
vn 0.6565 -0.7544 -0.0000
vn 0.0312 -0.0084 -0.9995
vn 0.1714 0.9852 -0.0000
vn 0.0312 -0.0084 0.9995
vn -0.3442 -0.9389 -0.0000
vt 0.083333 1.000000
vt 0.000000 1.000000
vt 0.083333 0.666667
vt 0.000000 0.666667
vt 0.166667 1.000000
vt 0.166667 0.666667
vt 0.250000 1.000000
vt 0.250000 0.666667
vt 0.333333 1.000000
vt 0.333333 0.666667
vt 0.416667 1.000000
vt 0.416667 0.666667
vt 0.500000 1.000000
vt 0.500000 0.666667
vt 0.583333 1.000000
vt 0.583333 0.666667
vt 0.666667 1.000000
vt 0.666667 0.666667
vt 0.750000 1.000000
vt 0.750000 0.666667
vt 0.833333 1.000000
vt 0.833333 0.666667
vt 0.916667 1.000000
vt 0.916667 0.666667
vt 1.000000 1.000000
vt 1.000000 0.666667
vt 0.083333 0.333333
vt 0.000000 0.333333
vt 0.166667 0.333333
vt 0.250000 0.333333
vt 0.333333 0.333333
vt 0.416667 0.333333
vt 0.500000 0.333333
vt 0.583333 0.333333
vt 0.666667 0.333333
vt 0.750000 0.333333
vt 0.833333 0.333333
vt 0.916667 0.333333
vt 1.000000 0.333333
vt 0.083333 -0.000000
vt 0.000000 -0.000000
vt 0.166667 -0.000000
vt 0.250000 -0.000000
vt 0.333333 -0.000000
vt 0.416667 -0.000000
vt 0.500000 -0.000000
vt 0.583333 -0.000000
vt 0.666667 -0.000000
vt 0.750000 -0.000000
vt 0.833333 -0.000000
vt 0.916667 -0.000000
vt 1.000000 -0.000000
s 1
usemtl initialShadingGroup
f 2/1/1 1/2/1 14/3/1
f 14/3/1 1/2/1 13/4/1
f 3/5/2 2/1/2 15/6/2
f 15/6/2 2/1/2 14/3/2
f 4/7/3 3/5/3 16/8/3
f 16/8/3 3/5/3 15/6/3
f 5/9/4 4/7/4 17/10/4
f 17/10/4 4/7/4 16/8/4
f 6/11/5 5/9/5 18/12/5
f 18/12/5 5/9/5 17/10/5
f 7/13/6 6/11/6 19/14/6
f 19/14/6 6/11/6 18/12/6
f 8/15/7 7/13/7 20/16/7
f 20/16/7 7/13/7 19/14/7
f 9/17/8 8/15/8 21/18/8
f 21/18/8 8/15/8 20/16/8
f 10/19/9 9/17/9 22/20/9
f 22/20/9 9/17/9 21/18/9
f 11/21/10 10/19/10 23/22/10
f 23/22/10 10/19/10 22/20/10
f 12/23/11 11/21/11 24/24/11
f 24/24/11 11/21/11 23/22/11
f 1/25/12 12/23/12 13/26/12
f 13/26/12 12/23/12 24/24/12
f 14/3/13 13/4/13 26/27/13
f 26/27/13 13/4/13 25/28/13
f 38/6/14 37/3/14 40/29/14
f 40/29/14 37/3/14 39/27/14
f 16/8/15 15/6/15 28/30/15
f 28/30/15 15/6/15 27/29/15
f 42/10/16 41/8/16 44/31/16
f 44/31/16 41/8/16 43/30/16
f 18/12/17 17/10/17 30/32/17
f 30/32/17 17/10/17 29/31/17
f 46/14/18 45/12/18 48/33/18
f 48/33/18 45/12/18 47/32/18
f 20/16/19 19/14/19 32/34/19
f 32/34/19 19/14/19 31/33/19
f 50/18/20 49/16/20 52/35/20
f 52/35/20 49/16/20 51/34/20
f 22/20/21 21/18/21 34/36/21
f 34/36/21 21/18/21 33/35/21
f 54/22/22 53/20/22 56/37/22
f 56/37/22 53/20/22 55/36/22
f 24/24/23 23/22/23 36/38/23
f 36/38/23 23/22/23 35/37/23
f 58/26/24 57/24/24 60/39/24
f 60/39/24 57/24/24 59/38/24
f 26/27/25 25/28/25 2/40/25
f 2/40/25 25/28/25 1/41/25
f 27/29/26 26/27/26 3/42/26
f 3/42/26 26/27/26 2/40/26
f 28/30/27 27/29/27 4/43/27
f 4/43/27 27/29/27 3/42/27
f 29/31/28 28/30/28 5/44/28
f 5/44/28 28/30/28 4/43/28
f 30/32/29 29/31/29 6/45/29
f 6/45/29 29/31/29 5/44/29
f 31/33/30 30/32/30 7/46/30
f 7/46/30 30/32/30 6/45/30
f 32/34/31 31/33/31 8/47/31
f 8/47/31 31/33/31 7/46/31
f 33/35/32 32/34/32 9/48/32
f 9/48/32 32/34/32 8/47/32
f 34/36/33 33/35/33 10/49/33
f 10/49/33 33/35/33 9/48/33
f 35/37/34 34/36/34 11/50/34
f 11/50/34 34/36/34 10/49/34
f 36/38/35 35/37/35 12/51/35
f 12/51/35 35/37/35 11/50/35
f 25/39/36 36/38/36 1/52/36
f 1/52/36 36/38/36 12/51/36
f 15/6/37 14/3/37 38/6/37
f 38/6/37 14/3/37 37/3/37
f 14/3/38 26/27/38 37/3/38
f 37/3/38 26/27/38 39/27/38
f 26/27/39 27/29/39 39/27/39
f 39/27/39 27/29/39 40/29/39
f 27/29/40 15/6/40 40/29/40
f 40/29/40 15/6/40 38/6/40
f 17/10/41 16/8/41 42/10/41
f 42/10/41 16/8/41 41/8/41
f 16/8/42 28/30/42 41/8/42
f 41/8/42 28/30/42 43/30/42
f 28/30/43 29/31/43 43/30/43
f 43/30/43 29/31/43 44/31/43
f 29/31/44 17/10/44 44/31/44
f 44/31/44 17/10/44 42/10/44
f 19/14/45 18/12/45 46/14/45
f 46/14/45 18/12/45 45/12/45
f 18/12/46 30/32/46 45/12/46
f 45/12/46 30/32/46 47/32/46
f 30/32/47 31/33/47 47/32/47
f 47/32/47 31/33/47 48/33/47
f 31/33/48 19/14/48 48/33/48
f 48/33/48 19/14/48 46/14/48
f 21/18/49 20/16/49 50/18/49
f 50/18/49 20/16/49 49/16/49
f 20/16/50 32/34/50 49/16/50
f 49/16/50 32/34/50 51/34/50
f 32/34/51 33/35/51 51/34/51
f 51/34/51 33/35/51 52/35/51
f 33/35/52 21/18/52 52/35/52
f 52/35/52 21/18/52 50/18/52
f 23/22/53 22/20/53 54/22/53
f 54/22/53 22/20/53 53/20/53
f 22/20/54 34/36/54 53/20/54
f 53/20/54 34/36/54 55/36/54
f 34/36/55 35/37/55 55/36/55
f 55/36/55 35/37/55 56/37/55
f 35/37/56 23/22/56 56/37/56
f 56/37/56 23/22/56 54/22/56
f 13/26/57 24/24/57 58/26/57
f 58/26/57 24/24/57 57/24/57
f 24/24/58 36/38/58 57/24/58
f 57/24/58 36/38/58 59/38/58
f 36/38/59 25/39/59 59/38/59
f 59/38/59 25/39/59 60/39/59
f 25/39/60 13/26/60 60/39/60
f 60/39/60 13/26/60 58/26/60
